HIERARCHY
ROOT SpineBase
{
  OFFSET 0.000000 0.000000 0.000000
  CHANNELS 6 Xposition Yposition Zposition Zrotation Xrotation Yrotation
  JOINT SpineMid
  {
    OFFSET 0.000000 32.988442 0.000000
    CHANNELS 3 Zrotation Xrotation Yrotation
    JOINT SpineShoulder
    {
      OFFSET 0.286012 24.439163 -0.707277
      CHANNELS 3 Zrotation Xrotation Yrotation
      JOINT Neck
      {
        OFFSET 0.200792 8.055342 -0.548274
        CHANNELS 3 Zrotation Xrotation Yrotation
        JOINT Head
        {
          OFFSET 5.019553 12.472467 5.318496
          CHANNELS 3 Zrotation Xrotation Yrotation
          End Site
          {
            OFFSET 0 0 0
          }
        }
      }
      JOINT ShoulderLeft
      {
        OFFSET -5.739929 -4.123074 -14.893710
        CHANNELS 3 Zrotation Xrotation Yrotation
        JOINT ElbowLeft
        {
          OFFSET -5.953751 -26.035893 -7.699921
          CHANNELS 3 Zrotation Xrotation Yrotation
          JOINT WristLeft
          {
            OFFSET 1.593018 -23.120679 -2.461355
            CHANNELS 3 Zrotation Xrotation Yrotation
            JOINT HandLeft
            {
              OFFSET 0.644960 -8.556389 2.276453
              CHANNELS 3 Zrotation Xrotation Yrotation
              JOINT HandTipLeft
              {
                OFFSET 0.764968 -8.539293 1.019810
                CHANNELS 3 Zrotation Xrotation Yrotation
                End Site
                {
                  OFFSET 0 0 0
                }
              }
              JOINT ThumbLeft
              {
                OFFSET 4.514203 3.321072 5.866016
                CHANNELS 3 Zrotation Xrotation Yrotation
                End Site
                {
                  OFFSET 0 0 0
                }
              }
            }
          }
        }
      }
      JOINT ShoulderRight
      {
        OFFSET 7.127218 -7.856034 12.822789
        CHANNELS 3 Zrotation Xrotation Yrotation
        JOINT ElbowRight
        {
          OFFSET 0.225034 -25.741238 7.884332
          CHANNELS 3 Zrotation Xrotation Yrotation
          JOINT WristRight
          {
            OFFSET 1.281317 -19.384677 3.967983
            CHANNELS 3 Zrotation Xrotation Yrotation
            JOINT HandRight
            {
              OFFSET -2.099288 -11.753705 0.557132
              CHANNELS 3 Zrotation Xrotation Yrotation
              JOINT HandTipRight
              {
                OFFSET -0.118693 -4.405766 0.272604
                CHANNELS 3 Zrotation Xrotation Yrotation
                End Site
                {
                  OFFSET 0 0 0
                }
              }
              JOINT ThumbRight
              {
                OFFSET -0.442364 0.531442 -3.962394
                CHANNELS 3 Zrotation Xrotation Yrotation
                End Site
                {
                  OFFSET 0 0 0
                }
              }
            }
          }
        }
      }
    }
  }
  JOINT HipLeft
  {
    OFFSET -2.382411 1.695343 -9.428576
    CHANNELS 3 Zrotation Xrotation Yrotation
    JOINT KneeLeft
    {
      OFFSET -9.091437 -33.040203 0.387773
      CHANNELS 3 Zrotation Xrotation Yrotation
      JOINT AnkleLeft
      {
        OFFSET -7.961761 -34.798608 8.472928
        CHANNELS 3 Zrotation Xrotation Yrotation
        JOINT FootLeft
        {
          OFFSET 9.606144 -4.711921 -7.043638
          CHANNELS 3 Zrotation Xrotation Yrotation
          End Site
          {
            OFFSET 0 0 0
          }
        }
      }
    }
  }
  JOINT HipRight
  {
    OFFSET 4.239155 -0.255979 2.146009
    CHANNELS 3 Zrotation Xrotation Yrotation
    JOINT KneeRight
    {
      OFFSET -6.445449 -32.621909 5.506362
      CHANNELS 3 Zrotation Xrotation Yrotation
      JOINT AnkleRight
      {
        OFFSET -14.290228 -36.604211 1.317563
        CHANNELS 3 Zrotation Xrotation Yrotation
        JOINT FootRight
        {
          OFFSET 10.643374 -4.306473 -8.159594
          CHANNELS 3 Zrotation Xrotation Yrotation
          End Site
          {
            OFFSET 0 0 0
          }
        }
      }
    }
  }
}
MOTION
Frames: 6
Frame Time: 0.033333
-89.650115 77.006274 355.821848 -3.085103 -2.634916 -49.038882 0.343638 -0.568355 48.900469 -0.032860 -0.400864 -0.087972 -8.117070 -12.129328 10.668613 0.000000 0.000000 0.000000 -7.159333 9.944594 2.822863 42.683546 -1.892260 -1.637423 12.427039 4.344086 15.206030 -5.526198 -4.312203 -6.299713 0.000000 0.000000 0.000000 0.000000 0.000000 0.000000 0.003394 10.064561 -0.537187 49.485055 52.727936 -6.522130 -50.752466 16.753546 -50.365539 43.041129 28.578126 31.473797 0.000000 0.000000 0.000000 0.000000 0.000000 0.000000 -2.486219 16.616868 46.672640 -13.776950 -10.261423 -0.633101 4.260839 4.998125 14.449621 0.000000 0.000000 0.000000 5.508391 31.288831 48.559239 0.544666 -22.001012 8.116627 -27.538412 12.138048 11.563530 0.000000 0.000000 0.000000
-88.745117 76.230675 355.885540 -4.022429 -3.325241 -46.028100 0.324961 -0.522989 45.821556 -0.004574 -0.380224 -0.115224 -8.626146 -14.006410 12.123152 0.000000 0.000000 0.000000 -9.906899 10.921751 4.339404 51.970140 -3.104367 -1.786570 14.264510 3.488240 18.236810 -1.578826 2.298793 -9.156388 0.000000 0.000000 0.000000 0.000000 0.000000 0.000000 -0.802208 15.147495 -0.565450 55.443446 58.506082 -7.650865 -48.592380 19.728064 -60.124919 33.764216 34.104431 38.325022 0.000000 0.000000 0.000000 0.000000 0.000000 0.000000 -2.872701 19.435586 43.260444 -13.582249 -12.516649 -0.313264 2.999565 5.619775 17.191787 0.000000 0.000000 0.000000 9.060207 34.657470 44.429957 0.877804 -22.981383 8.997798 -31.318207 13.029750 14.860290 0.000000 0.000000 0.000000
-87.365889 74.964615 356.072915 -5.403710 -3.849138 -42.570531 0.347334 -0.383476 42.260689 0.059541 -0.349326 -0.158482 -7.214060 -16.559483 13.223515 0.000000 0.000000 0.000000 -12.207696 10.794143 5.910722 57.228379 -2.614639 -2.749427 22.940774 -3.589464 25.258703 7.242355 15.445456 -18.793199 0.000000 0.000000 0.000000 0.000000 0.000000 0.000000 -1.557974 19.937618 -0.454995 55.095441 62.583074 -5.356494 -33.192638 16.334492 -61.801900 13.041147 27.940570 36.204543 0.000000 0.000000 0.000000 0.000000 0.000000 0.000000 -2.918425 22.044891 39.447472 -13.215494 -14.432732 -0.219465 2.226911 5.775903 20.092478 0.000000 0.000000 0.000000 13.166126 36.972073 39.487890 2.820646 -23.671158 10.355456 -35.580317 13.709754 18.168166 0.000000 0.000000 0.000000
-86.178964 73.491912 356.327738 -6.957544 -4.191805 -39.286951 0.358583 -0.330190 38.857103 0.087569 -0.359018 -0.216012 -5.206835 -19.228960 14.283667 0.000000 0.000000 0.000000 -14.364155 10.039780 7.556854 66.140064 -2.116513 -4.148850 28.153930 -13.525000 35.499858 20.281188 26.313033 -34.855728 0.000000 0.000000 0.000000 0.000000 0.000000 0.000000 -1.526725 23.227706 -0.258624 55.519428 66.947781 -4.810645 -18.658242 6.192349 -54.857237 -6.476138 22.990960 17.627293 0.000000 0.000000 0.000000 0.000000 0.000000 0.000000 -2.257387 25.146620 35.683568 -13.673981 -16.765273 -0.351296 1.849452 5.984885 22.890465 0.000000 0.000000 0.000000 17.702444 38.952209 34.457079 4.473486 -24.520931 11.770921 -39.361062 14.341877 21.289459 0.000000 0.000000 0.000000
-84.310769 71.785467 356.641590 -8.746281 -4.432287 -36.589912 0.384905 -0.294584 36.019788 0.159009 -0.366040 -0.283782 -3.084082 -21.916052 15.393036 0.000000 0.000000 0.000000 -15.806588 8.234052 8.985418 75.966148 -1.139015 -6.602795 30.915531 -27.964808 49.195921 41.143461 31.698214 -56.679997 0.000000 0.000000 0.000000 0.000000 0.000000 0.000000 -1.629885 26.281103 0.008399 50.757413 69.451845 -0.331436 -2.934393 -4.437280 -38.001637 -26.536611 26.153147 -13.264451 0.000000 0.000000 0.000000 0.000000 0.000000 0.000000 -1.100793 27.072440 32.676002 -15.040946 -17.958615 -1.311337 2.863206 6.050582 25.694720 0.000000 0.000000 0.000000 21.943907 40.942895 29.901615 4.483599 -25.854700 12.713791 -41.149158 14.658845 23.914802 0.000000 0.000000 0.000000
-82.067924 70.006962 356.980791 -10.632281 -4.591418 -34.563707 0.433857 -0.243042 33.845331 0.246713 -0.366392 -0.355393 -0.478329 -24.104124 16.215287 0.000000 0.000000 0.000000 -17.903520 5.683316 10.585718 86.655835 -1.013230 -9.474298 31.008004 -36.631390 59.082608 51.427161 30.290242 -66.386970 0.000000 0.000000 0.000000 0.000000 0.000000 0.000000 -0.629356 27.689458 0.191173 45.416702 70.935621 2.971735 8.190723 -12.861972 -20.190373 -41.574575 36.159883 -36.425927 0.000000 0.000000 0.000000 0.000000 0.000000 0.000000 -0.125875 28.199038 30.527846 -16.323635 -18.303592 -2.527812 4.467025 5.727074 27.989852 0.000000 0.000000 0.000000 26.017314 42.999678 25.925258 3.060905 -27.566035 13.156794 -41.334272 14.803908 25.721049 0.000000 0.000000 0.000000
